<svg width="41" height="40" viewBox="0 0 41 40" fill="none" xmlns="http://www.w3.org/2000/svg">
<path d="M41 20C41 31.0456 31.9793 40 20.8518 40H20.5912H20.4306L20.2751 39.9962C20.1605 39.9962 20.0453 39.9887 19.9313 39.9837C19.8866 39.9837 19.8425 39.98 19.7978 39.9769L19.5579 39.9637L19.3835 39.9519L19.3237 39.9475C19.2715 39.9437 19.2192 39.94 19.1669 39.935C19.1147 39.93 19.0738 39.9275 19.0272 39.9231C18.9699 39.9181 18.9126 39.9131 18.8546 39.9069L18.7583 39.8975C18.6223 39.8837 18.4869 39.8687 18.3516 39.8512C18.3006 39.8456 18.2489 39.8387 18.1973 39.8319C18.0714 39.8165 17.9478 39.7992 17.8265 39.78L17.6407 39.75C17.5778 39.7406 17.5148 39.7306 17.4569 39.72L17.2736 39.6881C17.1931 39.6744 17.1125 39.6594 17.0331 39.6437C16.9702 39.6331 16.9135 39.6212 16.8537 39.6094L16.7278 39.5831C16.6056 39.5581 16.4847 39.5319 16.3638 39.5044L16.1856 39.4631L16.0062 39.42C15.8866 39.3912 15.7676 39.3608 15.6492 39.3287L15.4723 39.2812L15.2953 39.2319C15.1776 39.1981 15.0599 39.1637 14.9434 39.1281L14.7923 39.0819L14.7192 39.0587L14.5757 39.0125C14.4535 38.9725 14.3314 38.9319 14.2105 38.8875L14.0367 38.825L14.0191 38.8187L13.8491 38.7562C13.6684 38.6937 13.4902 38.6219 13.3126 38.55L13.1357 38.4781L12.9594 38.4044C12.8419 38.3556 12.7252 38.305 12.6094 38.2525L12.4589 38.1875L12.4104 38.1656L12.292 38.1106C11.7883 37.8765 11.2957 37.6215 10.8143 37.3456L10.6638 37.2587C10.5826 37.2119 10.5014 37.1637 10.4214 37.115L10.2955 37.0369L10.2476 37.0081L10.1286 36.9337C9.95651 36.8271 9.78693 36.7175 9.61987 36.605L9.46687 36.5C9.39215 36.4496 9.31786 36.3983 9.24398 36.3462C9.23974 36.3437 9.23574 36.3408 9.23202 36.3375C9.15562 36.2842 9.08006 36.2304 9.00535 36.1762L8.99213 36.1669C8.91112 36.1081 8.83052 36.0487 8.75035 35.9887C8.74071 35.9824 8.73146 35.9755 8.72265 35.9681C8.65276 35.9162 8.5835 35.8637 8.51487 35.81C8.4985 35.7987 8.48339 35.7869 8.46828 35.7744C8.40091 35.7225 8.33353 35.67 8.26679 35.6162C8.24161 35.5969 8.21642 35.5762 8.19124 35.5537C8.12324 35.5 8.05524 35.4444 7.98787 35.3881C7.97276 35.3769 7.95828 35.365 7.94442 35.3525C7.89657 35.3133 7.84872 35.2733 7.80087 35.2325C7.75805 35.1969 7.71524 35.16 7.67494 35.1237C7.60316 35.0633 7.53244 35.0008 7.46276 34.9362C7.38783 34.8706 7.31417 34.8037 7.2405 34.7369C7.16683 34.67 7.09757 34.6062 7.02705 34.5394C6.67782 34.2131 6.34055 33.874 6.01524 33.5219C5.97809 33.4825 5.94157 33.4425 5.90568 33.4025C5.85531 33.3481 5.80557 33.2931 5.75709 33.2375C5.70861 33.1819 5.66454 33.1337 5.6192 33.0812C5.57387 33.0287 5.51405 32.96 5.4618 32.8987C5.30817 32.7192 5.15831 32.5369 5.01224 32.3519L4.89135 32.1975C4.77676 32.0512 4.66468 31.9029 4.55513 31.7525C4.49217 31.6662 4.4292 31.58 4.36624 31.4925C4.36169 31.4867 4.35748 31.4807 4.35365 31.4744C4.29278 31.3881 4.23234 31.3012 4.17231 31.2137C4.11733 31.1346 4.0636 31.0548 4.01113 30.9744C3.98972 30.9431 3.96831 30.9119 3.94817 30.8781C3.90997 30.8206 3.87219 30.7625 3.83483 30.7037C3.82035 30.6819 3.80587 30.66 3.79265 30.6375C3.7385 30.5542 3.68519 30.4687 3.63272 30.3812C3.57479 30.2875 3.51813 30.1937 3.46209 30.0975C3.40605 30.0012 3.35065 29.91 3.29587 29.8112C3.26439 29.7556 3.23291 29.7006 3.20205 29.6444L3.13468 29.5194C3.09628 29.4506 3.05913 29.3812 3.02198 29.3119C3.01317 29.2956 3.00435 29.2787 2.99617 29.2619C2.96468 29.1994 2.9332 29.1425 2.90235 29.0825C2.86457 29.0087 2.82743 28.935 2.79028 28.8612C2.75313 28.7875 2.71724 28.7131 2.68135 28.6394C2.60915 28.4906 2.53884 28.3408 2.47042 28.19C2.402 28.0392 2.33548 27.8873 2.27083 27.7344C2.23872 27.6581 2.20787 27.5812 2.17513 27.5044C2.14239 27.4275 2.11217 27.3513 2.08257 27.2744C2.05235 27.1975 2.01961 27.1206 1.99317 27.0431C1.96672 26.9656 1.93461 26.8875 1.90565 26.8094C1.8217 26.5752 1.74047 26.3385 1.66198 26.0994C1.63617 26.02 1.61098 25.94 1.58642 25.86C1.55054 25.7444 1.51591 25.6275 1.48191 25.5106C1.46554 25.4525 1.44854 25.3937 1.43217 25.335C1.4158 25.2762 1.40005 25.2181 1.38431 25.1594C1.35199 25.0419 1.32135 24.9238 1.29239 24.805C1.27728 24.7458 1.2628 24.6865 1.24894 24.6269L1.20739 24.45C1.17968 24.33 1.15324 24.21 1.12805 24.0888L1.10161 23.9638C1.08965 23.9044 1.07768 23.845 1.06698 23.7856C1.05124 23.7069 1.03613 23.6269 1.02228 23.5469C1.01094 23.4865 1.00024 23.4258 0.990165 23.365C0.979461 23.3025 0.969388 23.24 0.959944 23.1825C0.950499 23.125 0.940424 23.0575 0.93098 22.9988C0.912091 22.8738 0.895091 22.7538 0.878721 22.6306C0.871795 22.5794 0.864869 22.5281 0.859203 22.4775C0.841573 22.3431 0.826463 22.2088 0.812611 22.0738C0.808833 22.0421 0.805683 22.0102 0.803165 21.9781C0.796868 21.9206 0.791833 21.8638 0.786796 21.8069C0.782388 21.7606 0.777981 21.7144 0.774833 21.6681C0.771684 21.6219 0.766017 21.5644 0.762239 21.5125C0.762239 21.4925 0.759091 21.4731 0.757831 21.4531C0.753424 21.3956 0.749648 21.3375 0.74587 21.28C0.740833 21.2004 0.736424 21.121 0.732647 21.0419C0.729498 20.9975 0.72761 20.9538 0.725722 20.9094C0.720685 20.7963 0.716276 20.6819 0.713128 20.5681L0.709351 20.4138C0.709351 20.3606 0.709351 20.3075 0.709351 20.2544C0.709351 20.1681 0.709351 20.0819 0.709351 19.9956C0.709351 19.9094 0.709351 19.8231 0.709351 19.7369C0.709351 19.6619 0.71061 19.5869 0.713128 19.5119C0.717536 19.3194 0.725092 19.1281 0.735796 18.9369C0.738944 18.8669 0.742722 18.7963 0.747759 18.7263C0.754685 18.6156 0.76224 18.5044 0.771055 18.3944C0.776092 18.3319 0.781757 18.2694 0.787424 18.2031C0.79372 18.1288 0.801278 18.0544 0.808833 17.9794L0.8145 17.9206C0.822055 17.8469 0.830239 17.7731 0.839054 17.6994C0.847869 17.6219 0.857314 17.545 0.866758 17.4688C0.874314 17.41 0.881869 17.3519 0.890054 17.2938C0.898239 17.2356 0.904536 17.1894 0.912091 17.1375C0.934338 16.9817 0.958474 16.8267 0.984498 16.6725C0.996461 16.6019 1.00843 16.5319 1.02102 16.4619C1.02066 16.4579 1.02066 16.454 1.02102 16.45C1.04746 16.3006 1.07579 16.1525 1.10665 16.0044C1.11357 15.9694 1.1205 15.935 1.12805 15.9006C1.1482 15.8025 1.16961 15.7044 1.19102 15.6069C1.23929 15.3915 1.29155 15.1775 1.3478 14.965C1.37046 14.8769 1.39376 14.7888 1.41831 14.7006C1.44539 14.6019 1.47372 14.5025 1.50268 14.4044C1.5285 14.3156 1.55494 14.2269 1.58265 14.1388C1.58705 14.1219 1.59209 14.1056 1.59776 14.0894C1.62609 13.9981 1.65505 13.9075 1.68465 13.8169C1.71613 13.72 1.74761 13.6244 1.78161 13.5281C1.81561 13.4319 1.84772 13.3406 1.88235 13.2425L1.88613 13.2319C1.90754 13.1694 1.92957 13.1119 1.95287 13.0525C1.97617 12.9931 1.99065 12.95 2.01017 12.8988C2.07313 12.7381 2.13609 12.5781 2.19905 12.42C2.22046 12.3675 2.24187 12.315 2.26202 12.2631C2.27146 12.2388 2.28216 12.215 2.29287 12.1913C2.31868 12.1288 2.34576 12.0663 2.37346 12.0038C2.3785 11.9913 2.38354 11.9794 2.3892 11.9675C2.41879 11.9 2.45217 11.8331 2.47924 11.7663C2.54661 11.6188 2.61524 11.4719 2.68639 11.3288C2.71031 11.2794 2.73424 11.23 2.7588 11.1813C2.78335 11.1325 2.79972 11.0981 2.82176 11.0563C2.8438 11.0144 2.85639 10.9863 2.87465 10.9519C2.89291 10.9175 2.91242 10.8775 2.93257 10.84C2.96028 10.7863 2.98861 10.7325 3.01694 10.6794C3.05409 10.6088 3.09187 10.5388 3.12965 10.4694C3.23165 10.2831 3.33659 10.099 3.44446 9.91688C3.47279 9.86875 3.50113 9.82126 3.53009 9.77376C3.56409 9.71626 3.59872 9.65938 3.63398 9.6025C3.71268 9.47313 3.79391 9.34438 3.87639 9.2175C3.9192 9.15063 3.96328 9.08375 4.00735 9.0175C4.04198 8.96438 4.07724 8.91188 4.1125 8.86C4.30852 8.56834 4.5121 8.28396 4.72324 8.00688C4.75598 7.96313 4.78935 7.92 4.82272 7.87688C4.8435 7.84875 4.86428 7.82125 4.88568 7.79438L5.00657 7.64C5.15265 7.455 5.3025 7.27271 5.45613 7.09313C5.50839 7.03063 5.56065 6.96813 5.61353 6.91063C5.66642 6.85313 5.70483 6.80626 5.75142 6.75438C5.79802 6.70251 5.84965 6.64376 5.90002 6.58938C5.93591 6.54938 5.97243 6.50938 6.00957 6.47001C6.32607 6.12667 6.65494 5.79521 6.9962 5.47563C8.54125 6.92832 9.8461 8.61356 10.8628 10.4694C8.37986 13.0295 6.99501 16.4463 6.99998 20C6.99998 20.1619 6.99998 20.3231 7.0088 20.4831C7.08224 22.6648 7.68069 24.7973 8.75413 26.7025C8.86032 26.8912 8.97093 27.0771 9.08594 27.26L28.1637 8.32251C26.11 7.05178 23.7553 6.34042 21.3366 6.26001C21.1755 6.25376 21.013 6.25126 20.8499 6.25126C19.2508 6.24937 17.6634 6.52302 16.1586 7.06C15.0868 5.18609 13.7871 3.44997 12.2889 1.89063C12.6813 1.70688 13.0801 1.53605 13.4852 1.37813L13.6526 1.31563C13.7924 1.26188 13.9335 1.21063 14.0751 1.16063C14.1337 1.13938 14.1929 1.11938 14.2521 1.09813C14.3112 1.07688 14.3698 1.05751 14.4296 1.03563C14.4894 1.01376 14.5555 0.993132 14.6216 0.973132C14.6997 0.947507 14.7784 0.923132 14.8578 0.898757L15.0567 0.836257C15.2091 0.791257 15.3623 0.747715 15.5163 0.705632C15.5598 0.693757 15.6026 0.681882 15.6461 0.671257C15.7015 0.656257 15.7575 0.641257 15.8135 0.627507C15.8696 0.613757 15.9395 0.595007 16.0024 0.579382C16.0818 0.560007 16.1611 0.540632 16.2411 0.522507L16.3594 0.500007L16.5017 0.468757C16.6793 0.430007 16.8581 0.393132 17.0382 0.359382C17.1194 0.343757 17.2006 0.328757 17.2825 0.314382H17.2913C17.3719 0.299382 17.4531 0.285632 17.5343 0.272507C17.6716 0.250007 17.8097 0.229174 17.9486 0.210007L18.0915 0.187507C18.3081 0.158132 18.5254 0.131882 18.7445 0.109382L18.8452 0.0993823C18.9044 0.0931323 18.9629 0.0881323 19.0215 0.0831323C19.1084 0.0750073 19.1953 0.0675073 19.2822 0.0612573L19.3791 0.0543823C19.4358 0.0500073 19.4931 0.0456323 19.5504 0.0425073H19.5699L19.7771 0.0306323C19.8721 0.0256323 19.9659 0.0212573 20.0635 0.0175073L20.26 0.0112573C20.3097 0.0112573 20.3601 0.00813232 20.4098 0.00750732H20.5509C20.651 0.00750732 20.7511 0.00750732 20.8518 0.00750732H21.1125H21.2731L21.4286 0.0112573C21.5432 0.0112573 21.6578 0.0187573 21.7723 0.0237573C21.8171 0.0237573 21.8611 0.0275073 21.9058 0.0306323C21.9856 0.0343823 22.0655 0.0387573 22.1457 0.0437573L22.3201 0.0556323L22.3799 0.0600073C22.4322 0.0637573 22.4845 0.0675073 22.5367 0.0725073C22.589 0.0775073 22.6299 0.0800073 22.6765 0.0843823C22.7338 0.0893823 22.7911 0.0943823 22.849 0.100632C22.8809 0.103132 22.913 0.106257 22.9453 0.110007C23.0813 0.123757 23.2167 0.138757 23.3521 0.156257C23.4031 0.161882 23.4547 0.168757 23.5063 0.175632C23.6323 0.191882 23.7538 0.208757 23.8772 0.227507L24.0623 0.256257C24.1253 0.265632 24.1882 0.275632 24.2462 0.286257L24.4294 0.318132C24.51 0.331882 24.5906 0.346882 24.6699 0.362507C24.7329 0.373132 24.7895 0.385007 24.8493 0.396882L24.9753 0.423132C25.0974 0.448132 25.2183 0.474382 25.3392 0.501882L25.5174 0.543132C25.5774 0.556882 25.6372 0.571257 25.6968 0.586257C25.8165 0.615007 25.9355 0.645424 26.0538 0.677507L26.2308 0.725007L26.4077 0.774382C26.5254 0.808132 26.6432 0.842507 26.7596 0.878132L26.9611 0.940632L27.162 1.00313L27.3616 1.06938C27.4944 1.11438 27.6266 1.16126 27.7582 1.20876L27.9547 1.28126C28.0088 1.30126 28.063 1.32209 28.1171 1.34376C28.2015 1.37501 28.2846 1.40626 28.369 1.44126L28.5409 1.51126L28.7335 1.59126C28.7965 1.61813 28.8595 1.64563 28.9224 1.67376C28.9854 1.70188 29.0483 1.72876 29.1113 1.75751L29.3002 1.84376C29.3632 1.87251 29.4261 1.90188 29.4891 1.93188C29.5709 1.97001 29.6522 2.00876 29.7328 2.04876L29.8631 2.11126C29.9261 2.14188 29.989 2.17376 30.052 2.20501C30.1779 2.26751 30.2975 2.33001 30.4197 2.39751L30.5796 2.48438C30.6898 2.54688 30.7987 2.60501 30.9064 2.66751L31.0323 2.73938C31.1885 2.83001 31.3433 2.92251 31.4963 3.01813L31.6097 3.08876C31.6449 3.11063 31.6802 3.13251 31.7148 3.15501C31.7778 3.19688 31.8458 3.23876 31.9106 3.28001C31.9566 3.30938 32.0019 3.33876 32.0466 3.36938C32.0913 3.40001 32.1323 3.42626 32.1726 3.45563C32.5239 3.6923 32.8668 3.94021 33.2014 4.19938C33.2423 4.23001 33.2832 4.26188 33.3235 4.29376C33.5036 4.43459 33.681 4.57855 33.8556 4.72563L34.0319 4.87501C34.0948 4.92876 34.1578 4.98251 34.2208 5.03751C34.2598 5.07126 34.2982 5.10563 34.3366 5.14063C34.4203 5.21438 34.5028 5.29001 34.5847 5.36626C34.6344 5.41188 34.6842 5.45813 34.7333 5.50501C34.9813 5.73834 35.2229 5.97813 35.458 6.22438C35.5052 6.27313 35.5518 6.32251 35.5978 6.37188C35.6746 6.45313 35.7508 6.53501 35.825 6.61813C35.8603 6.65626 35.8949 6.69438 35.9289 6.73313C35.9843 6.79563 36.0385 6.85813 36.0926 6.92063C36.1468 6.98313 36.1909 7.03375 36.2394 7.09063C36.3871 7.26355 36.5321 7.43959 36.6744 7.61875C36.7065 7.65875 36.7374 7.69938 36.7695 7.74C36.9005 7.90667 37.0281 8.0748 37.1523 8.24438L18.7816 26.4744L13.5381 31.6794C15.5917 32.9502 17.9464 33.6616 20.3651 33.7419C20.5263 33.7481 20.6888 33.7506 20.8518 33.7506C28.5018 33.7506 34.7037 27.5944 34.7037 20.0006C34.7037 19.8388 34.7037 19.6775 34.6949 19.5175L37.5282 16.705L40.1185 14.1331C40.1544 14.2488 40.189 14.3656 40.223 14.4825C40.2394 14.5406 40.2564 14.5994 40.2728 14.6581C40.2891 14.7169 40.3049 14.775 40.3206 14.8338C40.3525 14.9513 40.3832 15.0694 40.4125 15.1881C40.4276 15.2477 40.4421 15.3071 40.456 15.3663L40.4975 15.5431C40.5252 15.6631 40.5517 15.7831 40.5769 15.9044L40.6033 16.0294C40.6153 16.0888 40.6272 16.1481 40.6379 16.2075C40.6537 16.2863 40.6688 16.3663 40.6826 16.4463C40.694 16.5067 40.7047 16.5673 40.7148 16.6281C40.7255 16.6906 40.7355 16.7531 40.745 16.8106C40.7544 16.8681 40.7645 16.9356 40.7739 16.9944C40.7928 17.1169 40.8102 17.2396 40.8262 17.3625C40.8331 17.4138 40.8401 17.465 40.8457 17.5156C40.8634 17.65 40.8785 17.7844 40.8923 17.9194C40.8961 17.951 40.8992 17.9829 40.9018 18.015C40.908 18.0725 40.9131 18.1294 40.9181 18.1863C40.9225 18.2325 40.9269 18.2788 40.9301 18.325C40.9332 18.3713 40.9389 18.4288 40.9427 18.4806C40.9427 18.5006 40.9458 18.52 40.9471 18.54C40.9515 18.5975 40.9553 18.6556 40.9591 18.7131C40.9641 18.7927 40.9685 18.8721 40.9723 18.9513C40.9723 18.9956 40.9773 19.0394 40.9792 19.0838C40.9842 19.1975 40.9886 19.3113 40.9918 19.425L40.9956 19.5794C40.9956 19.6325 40.9956 19.6856 40.9956 19.7388C40.9985 19.8267 41 19.9138 41 20Z" fill="#71A894"/>
</svg>

