<svg width="34" height="40" viewBox="0 0 34 40" fill="none" xmlns="http://www.w3.org/2000/svg">
<path d="M34 5.47682C33.6592 5.79682 33.3303 6.12828 33.0134 6.47119C32.9762 6.51057 32.9397 6.55057 32.9038 6.59057C32.8534 6.64494 32.8037 6.69994 32.7552 6.75557C32.7067 6.81119 32.6627 6.85932 32.6173 6.91182C32.572 6.96432 32.5122 7.03307 32.4599 7.09432C32.3063 7.27349 32.1564 7.45578 32.0104 7.64119L31.8895 7.79557C31.8674 7.82244 31.8467 7.84994 31.8265 7.87807C31.7931 7.92119 31.7598 7.96432 31.727 8.00807C31.5172 8.28682 31.3136 8.57119 31.1163 8.86119C31.081 8.91307 31.0458 8.96557 31.0111 9.01869C30.9671 9.08494 30.923 9.15182 30.8802 9.21869C30.7977 9.34369 30.7165 9.47432 30.6378 9.60369C30.6025 9.66057 30.5679 9.71744 30.5339 9.77494C30.5049 9.82244 30.4766 9.86994 30.4483 9.91807C30.3408 10.1002 30.2359 10.2843 30.1334 10.4706C28.8426 9.13401 27.2923 8.07095 25.5761 7.34555C23.8599 6.62015 22.0134 6.24745 20.1481 6.24994C12.4981 6.24994 6.2963 12.4062 6.2963 19.9999C6.2963 27.5937 12.4981 33.75 20.1481 33.75C21.7473 33.7518 23.3346 33.4782 24.8395 32.9412C25.9118 34.8149 27.2121 36.5506 28.7111 38.1093C26.0322 39.3586 23.108 40.0042 20.1481 40C9.0207 40 0 31.0456 0 19.9999C0 8.95432 9.0207 -5.73622e-05 20.1481 -5.73622e-05C25.3017 -0.00315823 30.2599 1.95727 34 5.47682Z" fill="#303031"/>
</svg>